<svg xmlns="http://www.w3.org/2000/svg" viewBox="0 0 755 163"><polygon points="185.859 12.812 186.032 12.812 193.786 38.305 204.963 38.305 204.963 7.241 197.19 7.241 197.618 31.874 197.449 31.874 190.226 7.241 178.581 7.241 178.581 38.305 186.293 38.305 185.859 12.812" style="fill:#fff"/><polygon points="56.378 10.136 56.555 10.136 60.742 38.627 69.17 38.627 63.385 7.241 49.419 7.241 43.604 38.627 52.085 38.627 56.378 10.136" style="fill:#fff"/><polygon points="83.484 10.405 83.657 10.405 88.907 38.627 96.869 38.627 102.111 10.412 102.281 10.405 102.483 38.627 110.338 38.627 109.642 7.241 96.842 7.241 92.968 31.24 92.799 31.24 88.933 7.241 76.133 7.241 75.439 38.627 83.288 38.627 83.484 10.405" style="fill:#fff"/><path d="M27.221,39.837c5.684,0,10.344-1.93,11.1-7.163a15.222,15.222,0,0,0-.035-5.155C36.957,20.94,25.052,19,24.162,15.313a3.862,3.862,0,0,1-.035-1.645,2.587,2.587,0,0,1,2.867-2.1,2.672,2.672,0,0,1,2.918,2.84V16.34h7.831V14.148c0-6.84-6.137-7.911-10.583-7.911-5.582,0-10.131,1.85-10.97,6.973a10.634,10.634,0,0,0,.074,4.222c1.359,6.413,12.511,8.272,14.129,12.33a4.126,4.126,0,0,1,.06,2.331c-.255,1.024-.959,2.09-3.058,2.09-1.956,0-3.154-1.121-3.154-2.83L24.234,28.3H15.818v2.431C15.818,37.731,21.324,39.837,27.221,39.837Z" style="fill:#fff"/><path d="M129.3,39.671c5.62,0,10.242-1.9,10.982-7.085a15.235,15.235,0,0,0-.035-5.112c-1.313-6.508-13.107-8.434-13.979-12.084a3.952,3.952,0,0,1-.037-1.612,2.561,2.561,0,0,1,2.839-2.093,2.643,2.643,0,0,1,2.889,2.8v1.92h7.749V14.242c0-6.769-6.081-7.827-10.469-7.827-5.528,0-10.045,1.807-10.865,6.892a10.487,10.487,0,0,0,.068,4.186c1.352,6.352,12.39,8.194,14,12.211a4.162,4.162,0,0,1,.061,2.3c-.258,1.036-.962,2.068-3.032,2.068-1.947,0-3.122-1.1-3.122-2.8l-.007-3.022h-8.338l0,2.4C118,37.594,123.463,39.671,129.3,39.671Z" style="fill:#fff"/><path d="M161.876,30.445a6.434,6.434,0,0,1-.076,1.2,3.136,3.136,0,0,1-6.025,0,6.031,6.031,0,0,1-.076-1.2V7.234h-7.934v22.5c-.016.58.042,1.761.072,2.072.541,5.854,5.182,7.747,10.947,7.747S169.2,37.656,169.746,31.8c.035-.311.095-1.492.087-2.072V7.234h-7.957Z" style="fill:#fff"/><path d="M224.338,25.574h3.213v4.548a6.726,6.726,0,0,1-.069,1.2,3.4,3.4,0,0,1-6.42,0,7.313,7.313,0,0,1-.074-1.2V15.771a7.422,7.422,0,0,1,.126-1.468,2.908,2.908,0,0,1,3.128-2.287,2.86,2.86,0,0,1,3.135,2.287,7.355,7.355,0,0,1,.1,1.179v1.762h7.907V16.2s.031-1.072-.061-2.053c-.579-5.905-5.458-7.759-11.024-7.759s-10.316,1.87-11.016,7.759c-.061.507-.131,1.491-.131,2.053l0,13.207c0,.588.02,1.024.11,2.072.517,5.713,5.475,7.759,11.038,7.759s10.519-2.046,11.043-7.759c.089-1.048.1-1.484.1-2.072V20.983H224.338Z" style="fill:#fff"/><path d="M130.147,83.8c-4.165-5.054-11-8.129-18.638-8.129-14.675,0-28.751,11-28.751,30.238,0,18.935,14.577,30.137,28.557,30.137a23.806,23.806,0,0,0,18.832-8.827v7.64h13.385v-58H130.147ZM113.5,123.749c-9.919,0-17.552-7.931-17.552-18.045A17.464,17.464,0,0,1,113.5,87.857c9.908,0,17.345,8.035,17.345,17.848C130.841,115.72,123.4,123.749,113.5,123.749Z" style="fill:#fff"/><path d="M220.566,83.8c-4.168-5.054-11.009-8.129-18.639-8.129-14.673,0-28.751,11-28.751,30.238,0,18.935,14.574,30.137,28.551,30.137a23.82,23.82,0,0,0,18.839-8.827v7.64h13.382v-58H220.566Zm-16.659,39.954c-9.915,0-17.548-7.931-17.548-18.045a17.463,17.463,0,0,1,17.548-17.848c9.912,0,17.349,8.035,17.349,17.848C221.257,115.72,213.82,123.749,203.908,123.749Z" style="fill:#fff"/><polygon points="328.822 115.918 312.667 76.857 298.39 76.857 322.189 131.779 311.765 156.763 325.559 156.763 358.171 76.857 344.089 76.857 328.822 115.918" style="fill:#fff"/><polygon points="296.897 76.857 281.045 76.857 267.957 95.2 254.766 76.857 238.408 76.857 259.429 105.31 237.62 134.854 253.976 134.854 267.754 115.518 281.933 134.854 298.289 134.854 276.087 105.405 296.897 76.857" style="fill:#fff"/><rect x="152.752" y="61.485" width="13.481" height="73.369" style="fill:#fff"/><path d="M39.371,107.243h23.1c-2.578,9.52-10.112,15.659-20.919,15.659-14.073,0-24.188-10.7-24.188-24.083,0-13.189,10.206-24.1,23.695-24.1,9.516,0,16.457,4.364,20.916,12.591l11.895-7.137c-6.149-10.9-17.944-18.536-32.914-18.536-21.412,0-36.975,16.549-36.975,37.177,0,20.022,14.967,37.171,37.572,37.171,21.613,0,35.391-16.75,35.391-36.285V94.359H39.371Z" style="fill:#fff"/><path d="M408.646,92.084c-7.84-2.573-14.777-4.455-14.777-10.21,0-4.656,3.571-8.225,10.112-8.225a14.809,14.809,0,0,1,13.081,6.943l11.107-8.429c-5.85-6.047-12.6-10.512-24.289-10.512-13.873,0-23.987,9.125-23.987,20.722,0,13.781,10.809,17.542,20.516,20.618,7.733,2.383,15.075,4.265,15.075,10.411,0,5.054-3.872,9.711-11.01,9.711-6.547,0-12.191-3.567-15.857-9.815l-12.3,9.719c6.542,7.436,15.162,12.988,28.255,12.988,15.859,0,24.98-11.1,24.98-22.5C429.557,99.626,418.452,95.258,408.646,92.084Z" style="fill:#fff"/><path d="M478.065,96.552A17.761,17.761,0,0,0,484.9,82.271c0-12.487-9.518-20.619-23.491-20.619-14.28,0-23.69,8.132-23.69,20.619a17.694,17.694,0,0,0,6.442,14.182A19.475,19.475,0,0,0,435.24,113.4c0,13.877,9.318,22.6,25.677,22.6,16.264,0,25.87-8.727,25.87-22.6A19.707,19.707,0,0,0,478.065,96.552Zm-16.558-23.5c7.042,0,11.109,4.168,11.109,9.22s-3.97,9.121-11.5,9.121c-7.435,0-11.1-3.963-11.1-9.121C450.007,77.219,454.271,73.051,461.507,73.051Zm-.59,51.057c-8.629,0-12.7-4.757-12.7-10.705,0-5.852,4.567-10.71,12.993-10.71,8.325,0,12.688,4.761,12.688,10.71S469.447,124.108,460.917,124.108Z" style="fill:#fff"/><path d="M629.229,92.084c-7.834-2.573-14.773-4.455-14.773-10.21,0-4.656,3.57-8.225,10.1-8.225a14.826,14.826,0,0,1,13.091,6.943l11.107-8.429c-5.854-6.047-12.6-10.512-24.291-10.512-13.879,0-23.993,9.125-23.993,20.722,0,13.781,10.809,17.542,20.522,20.618,7.733,2.383,15.069,4.265,15.069,10.411,0,5.054-3.865,9.711-11,9.711-6.549,0-12.193-3.567-15.859-9.815l-12.3,9.719c6.536,7.436,15.162,12.988,28.253,12.988,15.863,0,24.982-11.1,24.982-22.5C650.144,99.626,639.043,95.258,629.229,92.084Z" style="fill:#fff"/><path d="M698.652,96.552a17.77,17.77,0,0,0,6.841-14.282c0-12.487-9.52-20.619-23.493-20.619-14.282,0-23.692,8.132-23.692,20.619a17.7,17.7,0,0,0,6.444,14.182,19.46,19.46,0,0,0-8.925,16.951c0,13.877,9.32,22.6,25.672,22.6,16.266,0,25.874-8.727,25.874-22.6A19.7,19.7,0,0,0,698.652,96.552ZM682.1,73.051c7.042,0,11.107,4.168,11.107,9.22s-3.97,9.121-11.5,9.121c-7.433,0-11.1-3.963-11.1-9.121C670.594,77.219,674.858,73.051,682.1,73.051Zm-.6,51.057c-8.623,0-12.69-4.757-12.69-10.705,0-5.852,4.56-10.71,12.99-10.71,8.329,0,12.686,4.761,12.686,10.71S690.031,124.108,681.5,124.108Z" style="fill:#fff"/><polygon points="738.335 93.178 738.335 80.593 727.131 80.593 727.131 93.178 714.346 93.178 714.346 104.58 727.131 104.58 727.131 117.272 738.335 117.272 738.335 104.58 751.021 104.58 751.021 93.178 738.335 93.178" style="fill:#fff"/><rect x="538.991" y="53.676" width="5.722" height="92.753" style="fill:#fff"/></svg>