<svg xmlns="http://www.w3.org/2000/svg" viewBox="0 0 755 110"><title>galaxys8-lockup-desktop</title><path d="M130.147,32.8c-4.165-5.054-11-8.129-18.638-8.129-14.675,0-28.751,11-28.751,30.238,0,18.935,14.577,30.137,28.557,30.137a23.806,23.806,0,0,0,18.832-8.827v7.64h13.385v-58H130.147ZM113.5,72.749c-9.919,0-17.552-7.931-17.552-18.045a17.464,17.464,0,0,1,17.077-17.843q.238-.005.475,0c9.908,0,17.345,8.035,17.345,17.848C130.841,64.72,123.4,72.749,113.5,72.749Z" style="fill:#fff"/><path d="M220.566,32.8c-4.168-5.054-11.009-8.129-18.639-8.129-14.673,0-28.751,11-28.751,30.238,0,18.935,14.574,30.137,28.551,30.137a23.82,23.82,0,0,0,18.839-8.827v7.64h13.382v-58H220.566ZM203.907,72.754c-9.915,0-17.548-7.931-17.548-18.045a17.463,17.463,0,0,1,17.074-17.844q.237-.005.474,0c9.912,0,17.349,8.035,17.349,17.848,0,10.011-7.436,18.04-17.348,18.04Z" style="fill:#fff"/><polygon points="328.822 64.918 312.667 25.857 298.39 25.857 322.189 80.779 311.765 105.763 325.559 105.763 358.171 25.857 344.089 25.857 328.822 64.918" style="fill:#fff"/><polygon points="296.897 25.857 281.045 25.857 267.957 44.2 254.766 25.857 238.408 25.857 259.429 54.31 237.62 83.854 253.976 83.854 267.754 64.518 281.933 83.854 298.289 83.854 276.087 54.405 296.897 25.857" style="fill:#fff"/><rect x="152.752" y="10.485" width="13.481" height="73.369" style="fill:#fff"/><path d="M39.371,56.243h23.1C59.893,65.763,52.359,71.9,41.552,71.9c-14.073,0-24.188-10.7-24.188-24.083,0-13.189,10.206-24.1,23.695-24.1,9.516,0,16.457,4.364,20.916,12.591l11.9-7.137c-6.149-10.9-17.944-18.536-32.914-18.536-21.412,0-36.975,16.549-36.975,37.177,0,20.022,14.967,37.171,37.572,37.171,21.613,0,35.391-16.75,35.391-36.285V43.359H39.371Z" style="fill:#fff"/><path d="M408.646,41.084c-7.84-2.573-14.777-4.455-14.777-10.21,0-4.656,3.571-8.225,10.112-8.225a14.809,14.809,0,0,1,13.081,6.943l11.107-8.429c-5.85-6.047-12.6-10.512-24.289-10.512-13.873,0-23.987,9.125-23.987,20.722,0,13.781,10.809,17.542,20.516,20.618,7.733,2.383,15.075,4.265,15.075,10.411,0,5.054-3.872,9.711-11.01,9.711-6.547,0-12.191-3.567-15.857-9.815l-12.3,9.719c6.542,7.436,15.162,12.988,28.255,12.988,15.859,0,24.98-11.1,24.98-22.5C429.557,48.626,418.452,44.258,408.646,41.084Z" style="fill:#fff"/><path d="M478.065,45.552A17.761,17.761,0,0,0,484.9,31.271c0-12.487-9.518-20.619-23.491-20.619-14.28,0-23.69,8.132-23.69,20.619a17.694,17.694,0,0,0,6.442,14.182A19.475,19.475,0,0,0,435.24,62.4c0,13.877,9.318,22.6,25.677,22.6,16.264,0,25.87-8.727,25.87-22.6A19.707,19.707,0,0,0,478.065,45.552Zm-16.558-23.5c7.042,0,11.109,4.168,11.109,9.22s-3.97,9.121-11.5,9.121c-7.435,0-11.1-3.963-11.1-9.121-.009-5.053,4.255-9.221,11.491-9.221Zm-.59,51.057c-8.629,0-12.7-4.757-12.7-10.705,0-5.852,4.567-10.71,12.993-10.71,8.325,0,12.688,4.761,12.688,10.71s-4.451,10.7-12.981,10.7Z" style="fill:#fff"/><path d="M629.229,41.084c-7.834-2.573-14.773-4.455-14.773-10.21,0-4.656,3.57-8.225,10.1-8.225a14.826,14.826,0,0,1,13.091,6.943l11.107-8.429c-5.854-6.047-12.6-10.512-24.291-10.512-13.879,0-23.993,9.125-23.993,20.722,0,13.781,10.809,17.542,20.522,20.618,7.733,2.383,15.069,4.265,15.069,10.411,0,5.054-3.865,9.711-11,9.711-6.549,0-12.193-3.567-15.859-9.815l-12.3,9.719c6.536,7.436,15.162,12.988,28.253,12.988,15.863,0,24.982-11.1,24.982-22.5C650.144,48.626,639.043,44.258,629.229,41.084Z" style="fill:#fff"/><path d="M698.652,45.552a17.77,17.77,0,0,0,6.841-14.282c0-12.487-9.52-20.619-23.493-20.619-14.282,0-23.692,8.132-23.692,20.619a17.7,17.7,0,0,0,6.444,14.182A19.46,19.46,0,0,0,655.827,62.4c0,13.877,9.32,22.6,25.672,22.6,16.266,0,25.874-8.727,25.874-22.6A19.7,19.7,0,0,0,698.652,45.552ZM682.1,22.051c7.042,0,11.107,4.168,11.107,9.22s-3.97,9.121-11.5,9.121c-7.433,0-11.1-3.963-11.1-9.121C670.594,26.219,674.858,22.051,682.1,22.051Zm-.6,51.057c-8.623,0-12.69-4.757-12.69-10.705,0-5.852,4.56-10.71,12.99-10.71,8.329,0,12.686,4.761,12.686,10.71S690.031,73.108,681.5,73.108Z" style="fill:#fff"/><polygon points="738.335 42.178 738.335 29.593 727.131 29.593 727.131 42.178 714.346 42.178 714.346 53.58 727.131 53.58 727.131 66.272 738.335 66.272 738.335 53.58 751.021 53.58 751.021 42.178 738.335 42.178" style="fill:#fff"/><rect x="538.991" y="2.676" width="5.722" height="92.753" style="fill:#fff"/></svg>